HIERARCHY
ROOT joint_0
{
	OFFSET 0.000000 0.000000 0.000000
	CHANNELS 6 Xposition Yposition Zposition Zrotation Yrotation Xrotation 
	JOINT joint_1
	{
		OFFSET 0.511002 1.944000 108.288940
		CHANNELS 3 Zrotation Yrotation Xrotation
		JOINT joint_2
		{
			OFFSET -9.074005 1.512993 98.440063
			CHANNELS 3 Zrotation Yrotation Xrotation
			JOINT joint_3
			{
				OFFSET -8.590996 1.815002 98.366943
				CHANNELS 3 Zrotation Yrotation Xrotation
				JOINT joint_4
				{
					OFFSET 2.489998 3.531998 136.462036
					CHANNELS 3 Zrotation Yrotation Xrotation
					JOINT joint_5
					{
						OFFSET 22.708000 2.955002 80.357056
						CHANNELS 3 Zrotation Yrotation Xrotation
						End Site
						{
							OFFSET 0.000000 0.000000 0.000000
						}
					}
				}
				JOINT joint_6
				{
					OFFSET 2.860001 -27.684998 77.234009
					CHANNELS 3 Zrotation Yrotation Xrotation
					JOINT joint_7
					{
						OFFSET 5.449997 -131.244003 -18.851929
						CHANNELS 3 Zrotation Yrotation Xrotation
						JOINT joint_8
						{
							OFFSET 35.757000 -24.661995 -264.074097
							CHANNELS 3 Zrotation Yrotation Xrotation
							JOINT joint_9
							{
								OFFSET 49.392001 -1.747002 -239.960938
								CHANNELS 3 Zrotation Yrotation Xrotation
								End Site
								{
									OFFSET 0.000000 0.000000 0.000000
								}
							}
						}
					}
				}
				JOINT joint_10
				{
					OFFSET -0.127998 31.625000 75.753052
					CHANNELS 3 Zrotation Yrotation Xrotation
					JOINT joint_11
					{
						OFFSET -5.618004 131.132996 -19.557007
						CHANNELS 3 Zrotation Yrotation Xrotation
						JOINT joint_12
						{
							OFFSET 46.488998 30.127991 -261.826050
							CHANNELS 3 Zrotation Yrotation Xrotation
							JOINT joint_13
							{
								OFFSET 66.021003 0.474030 -235.934937
								CHANNELS 3 Zrotation Yrotation Xrotation
								End Site
								{
									OFFSET 0.000000 0.000000 0.000000
								}
							}
						}
					}
				}
			}
		}
	}
	JOINT joint_14
	{
		OFFSET 15.887001 -78.871004 -94.561035
		CHANNELS 3 Zrotation Yrotation Xrotation
		JOINT joint_15
		{
			OFFSET -4.133003 6.714001 -473.615967
			CHANNELS 3 Zrotation Yrotation Xrotation
			JOINT joint_16
			{
				OFFSET -19.541000 5.340000 -399.613007
				CHANNELS 3 Zrotation Yrotation Xrotation
				JOINT joint_17
				{
					OFFSET 164.317001 41.657999 -73.195000
					CHANNELS 3 Zrotation Yrotation Xrotation
					End Site
					{
						OFFSET 0.000000 0.000000 0.000000
					}
				}
			}
		}
	}
	JOINT joint_18
	{
		OFFSET 6.513000 77.960991 -96.406982
		CHANNELS 3 Zrotation Yrotation Xrotation
		JOINT joint_19
		{
			OFFSET -10.660004 -8.518997 -473.485016
			CHANNELS 3 Zrotation Yrotation Xrotation
			JOINT joint_20
			{
				OFFSET -36.967995 -11.098999 -398.260010
				CHANNELS 3 Zrotation Yrotation Xrotation
				JOINT joint_21
				{
					OFFSET 166.067997 30.363998 -74.785000
					CHANNELS 3 Zrotation Yrotation Xrotation
					End Site
					{
						OFFSET 0.000000 0.000000 0.000000
					}
				}
			}
		}
	}
}
MOTION
Frames: 7
Frame Time: 0.016667
807.739990 132.782000 1007.047970 5.866451 1.222973 -3.750434 -4.203822 14.571670 8.873910 3.823062 -1.464335 -2.084679 5.122093 2.376833 1.162274 0.467880 -2.609714 -0.964743 0.000000 0.000000 0.000000 1.269501 -6.227237 0.178497 -1.275494 -6.013249 -9.262692 -2.837250 5.349275 -11.483759 0.000000 0.000000 0.000000 -3.860908 2.038040 -1.020598 2.355586 2.929463 3.558020 -1.268028 -19.666303 -3.078374 0.000000 0.000000 0.000000 -2.686311 -16.678665 6.997263 -4.019070 39.732536 -6.092333 -6.616787 -19.081650 2.416635 0.000000 0.000000 0.000000 -2.686276 -22.604282 13.745379 -6.482252 73.154903 -12.140551 -4.260888 0.226337 1.810718 0.000000 0.000000 0.000000 
833.323970 135.364000 1016.669010 6.312938 0.972551 -3.846629 -3.571405 14.380484 8.687005 3.958770 -1.456797 -2.096831 5.187809 2.364080 1.113593 0.336559 -2.556923 -0.529739 0.000000 0.000000 0.000000 1.193634 -6.178946 0.000386 -1.075506 -5.938039 -8.187794 -2.283285 2.315660 -9.555602 0.000000 0.000000 0.000000 -3.895284 3.147537 -1.294151 1.971916 3.951626 4.029765 -1.092661 -15.761617 -2.579947 0.000000 0.000000 0.000000 -2.848756 -13.641149 7.028944 -3.687089 37.176060 -6.217795 -5.871074 -17.245338 2.190623 0.000000 0.000000 0.000000 -2.187180 -24.812036 13.250247 -6.399822 70.249536 -11.919723 -3.030639 -1.738238 0.588423 0.000000 0.000000 0.000000 
858.765990 138.860990 1026.541020 6.688537 0.945362 -3.856461 -2.790120 13.924817 8.559177 4.020597 -1.427630 -2.128131 5.154584 2.310167 1.060314 0.229734 -2.582171 -0.154062 0.000000 0.000000 0.000000 1.052695 -6.115157 -0.194794 -0.910262 -5.880127 -7.479825 -1.609989 -0.746845 -7.103032 0.000000 0.000000 0.000000 -3.791083 4.383720 -1.535167 1.613141 5.070114 4.527258 -0.930815 -13.296975 -2.125506 0.000000 0.000000 0.000000 -2.867345 -10.790834 6.813296 -3.266744 34.437348 -6.064935 -4.992209 -14.762489 1.858101 0.000000 0.000000 0.000000 -1.793711 -26.802311 12.493185 -6.166703 66.225896 -11.595554 -2.223924 -3.037835 0.160251 0.000000 0.000000 0.000000 
884.202030 143.034000 1036.761960 7.017775 1.027162 -3.776787 -1.895859 13.340274 8.379430 4.022014 -1.399846 -2.132195 5.027242 2.240676 1.002991 0.149566 -2.691973 0.152803 0.000000 0.000000 0.000000 0.884559 -6.034120 -0.359185 -0.852110 -5.816377 -7.013697 -0.901630 -4.021477 -4.246004 0.000000 0.000000 0.000000 -3.625433 5.762925 -1.676696 1.185531 6.284267 5.009667 -0.792825 -11.837967 -1.735331 0.000000 0.000000 0.000000 -2.759978 -8.015541 6.397567 -2.778862 31.473874 -5.715018 -4.034873 -11.646760 1.403751 0.000000 0.000000 0.000000 -1.491659 -28.387166 11.514631 -5.726556 60.958291 -11.041487 -1.664225 -3.501375 0.062812 0.000000 0.000000 0.000000 
909.627010 147.485990 1045.974980 7.259177 1.105987 -3.666908 -0.996631 12.767326 8.138551 4.026639 -1.368369 -2.097822 4.892384 2.171625 0.961123 0.093572 -2.829459 0.387872 0.000000 0.000000 0.000000 0.720476 -6.050286 -0.567849 -0.893253 -5.844355 -6.536690 -0.303353 -7.028494 -1.394157 0.000000 0.000000 0.000000 -3.458859 7.155103 -1.832391 0.663241 7.487113 5.589171 -0.725498 -10.919003 -1.581869 0.000000 0.000000 0.000000 -2.584607 -5.537579 5.902038 -2.304998 28.918471 -5.264393 -3.157322 -8.307139 0.876666 0.000000 0.000000 0.000000 -1.223559 -29.503869 10.497975 -5.027623 54.980236 -10.119139 -1.079481 -3.803161 0.241220 0.000000 0.000000 0.000000 
934.911990 152.136000 1054.109010 7.447816 1.146587 -3.607117 -0.136269 12.252183 8.003174 4.048756 -1.300107 -2.084641 4.784590 2.105656 0.932772 0.068856 -2.988566 0.524729 0.000000 0.000000 0.000000 0.561919 -6.202338 -0.943249 -0.987793 -5.995347 -5.861066 0.173117 -9.623419 1.376997 0.000000 0.000000 0.000000 -3.275537 8.527190 -1.961900 0.035342 8.647094 6.195473 -0.795234 -10.478174 -1.886060 0.000000 0.000000 0.000000 -2.382172 -3.446524 5.395243 -1.885426 26.990576 -4.698669 -2.378770 -4.775976 0.273264 0.000000 0.000000 0.000000 -0.866203 -30.126771 9.459069 -3.960790 48.005529 -8.551717 -0.169929 -4.080136 0.638468 0.000000 0.000000 0.000000 
960.185970 157.064000 1061.235960 7.492226 1.157698 -3.625434 0.703055 11.801184 8.019359 4.111122 -1.237104 -2.130673 4.744617 2.026732 0.902710 0.070786 -3.161888 0.573975 0.000000 0.000000 0.000000 0.407374 -6.439725 -1.396212 -1.172632 -6.219090 -5.152875 0.574616 -11.964908 4.279100 0.000000 0.000000 0.000000 -3.085826 9.943793 -2.004193 -0.670410 9.806055 6.751867 -0.959218 -10.599170 -2.481239 0.000000 0.000000 0.000000 -2.113164 -1.633317 4.930752 -1.477047 25.512046 -4.068835 -1.643954 -1.079222 -0.382595 0.000000 0.000000 0.000000 -0.433085 -30.118757 8.488922 -2.679504 39.832449 -6.634495 0.613248 -3.777987 0.907418 0.000000 0.000000 0.000000 
